# xmcd
#
# Track frame offsets: 
#        150
#        12900
#        24860
#        39420
#        55052
#        75393
#        95267
#        107517
#        123636
#        141086
#        153868
#        169418
#
# Disc length: 2825 seconds
#
# Revision: 0
# Processed by: cddbd v1.5.2PL0 Copyright (c) Steve Scherf et al.
# Submitted via: ExactAudioCopy v0.95a5
#
DISCID=860b070c
DTITLE=Frank Solivan II - Selfish Tears
DYEAR=2007
DGENRE=Bluegrass
TTITLE0=Somebody's Missing You
TTITLE1=If I'm Lyin' I'm Dyin'
TTITLE2=Cryin' Here Today
TTITLE3=Selfish Tears
TTITLE4=Screened In
TTITLE5=Please Don't Go
TTITLE6=Love In My Heart
TTITLE7=Henry's Blanket
TTITLE8=Once In a Very Blue Moon
TTITLE9=I'll Go Stepping
TTITLE10=Scorchin' the Gravy
TTITLE11=Unknown
EXTD=
EXTT0=
EXTT1=
EXTT2=
EXTT3=
EXTT4=
EXTT5=
EXTT6=
EXTT7=
EXTT8=
EXTT9=
EXTT10=
EXTT11=
PLAYORDER=
